<svg width="127" height="110" viewBox="0 0 127 110" fill="none" xmlns="http://www.w3.org/2000/svg">
<path d="M124.906 0.660792C126.291 1.16126 127.008 2.68983 126.508 4.07495C126.008 5.46007 124.479 6.17722 123.094 5.67675C121.709 5.17628 120.992 3.64771 121.492 2.26259C121.992 0.877473 123.521 0.160323 124.906 0.660792ZM17.1468 109.121L11.7362 107.106L16.1861 103.428L17.1468 109.121ZM124 3.16877L123.954 3.66667C123.261 3.60291 122.57 3.54174 121.884 3.48313L121.926 2.98494L121.969 2.48675C122.658 2.54555 123.35 2.60691 124.046 2.67087L124 3.16877ZM117.84 2.66335L117.804 3.16206C116.458 3.06518 115.125 2.9784 113.806 2.90155L113.835 2.40239L113.864 1.90324C115.188 1.98036 116.525 2.06744 117.876 2.16464L117.84 2.66335ZM109.769 2.19489L109.748 2.69441C108.373 2.63434 107.014 2.58534 105.67 2.5472L105.684 2.04741L105.699 1.54761C107.048 1.58589 108.412 1.63508 109.791 1.69536L109.769 2.19489ZM101.69 1.96526L101.683 2.46522C100.3 2.44775 98.9332 2.44212 97.5829 2.4481L97.5807 1.94811L97.5784 1.44811C98.9345 1.44211 100.307 1.44776 101.696 1.4653L101.69 1.96526ZM93.5239 2.00178L93.535 2.50166C92.1828 2.53168 90.8479 2.57369 89.53 2.62744L89.5096 2.12786L89.4892 1.62827C90.8134 1.57426 92.1545 1.53206 93.5128 1.50191L93.5239 2.00178ZM85.4034 2.33635L85.4338 2.83543C84.0872 2.91753 82.7592 3.0123 81.4497 3.11947L81.4089 2.62114L81.3681 2.1228C82.6846 2.01506 84.0195 1.91979 85.373 1.83728L85.4034 2.33635ZM77.3235 3.00149L77.3756 3.49878C76.0208 3.64051 74.6869 3.79599 73.3736 3.96488L73.3098 3.46896L73.246 2.97304C74.5673 2.80314 75.909 2.64675 77.2715 2.50421L77.3235 3.00149ZM69.288 4.03741L69.3643 4.53156C68.0095 4.74076 66.6778 4.96479 65.3691 5.20323L65.2795 4.71133L65.1899 4.21943C66.5076 3.97935 67.8481 3.75382 69.2117 3.54327L69.288 4.03741ZM61.3126 5.49242L61.4163 5.98155C60.0716 6.26664 58.7527 6.56761 57.4593 6.88395L57.3405 6.39827L57.2217 5.91258C58.5253 5.59375 59.8543 5.29049 61.2089 5.00329L61.3126 5.49242ZM53.429 7.42257L53.5637 7.90409C52.242 8.27382 50.9487 8.66039 49.6837 9.06317L49.532 8.58673L49.3803 8.1103C50.6568 7.70386 51.9614 7.31392 53.2943 6.94106L53.429 7.42257ZM45.6895 9.89008L45.8592 10.3604C44.5758 10.8234 43.3239 11.304 42.1028 11.8015L41.9142 11.3385L41.7255 10.8755C42.9593 10.3727 44.224 9.88728 45.5199 9.41975L45.6895 9.89008ZM38.1704 12.9598L38.3793 13.4141C37.1484 13.9801 35.9519 14.5643 34.7895 15.1659L34.5597 14.7219L34.3299 14.2778C35.5063 13.669 36.7167 13.0779 37.9615 12.5055L38.1704 12.9598ZM30.9742 16.6934L31.2263 17.1252C30.0465 17.8141 28.9057 18.5222 27.8034 19.2483L27.5283 18.8308L27.2533 18.4132C28.3709 17.677 29.527 16.9594 30.722 16.2617L30.9742 16.6934ZM24.2282 21.1413L24.5267 21.5424C23.4242 22.3628 22.3653 23.2029 21.3492 24.0613L21.0265 23.6793L20.7038 23.2973C21.7359 22.4255 22.8109 21.5727 23.9297 20.7401L24.2282 21.1413ZM18.0119 26.3965L18.3587 26.7568C17.3813 27.6974 16.4503 28.6568 15.5646 29.6332L15.1943 29.2973L14.8239 28.9614C15.7249 27.968 16.6717 26.9925 17.6652 26.0363L18.0119 26.3965ZM12.5761 32.3965L12.9694 32.7053C12.1295 33.7747 11.3392 34.8615 10.5975 35.9639L10.1826 35.6847L9.76779 35.4056C10.5233 34.2829 11.3279 33.1763 12.1829 32.0877L12.5761 32.3965ZM8.04467 39.1337L8.47925 39.381C7.81143 40.5547 7.19442 41.7432 6.62696 42.9443L6.17487 42.7307L5.72279 42.5171C6.30101 41.2932 6.9297 40.0822 7.61009 38.8864L8.04467 39.1337ZM4.58424 46.4592L5.05127 46.6377C4.57006 47.8965 4.13982 49.1665 3.75921 50.4455L3.27998 50.3029L2.80075 50.1603C3.18851 48.8573 3.62687 47.5633 4.1172 46.2807L4.58424 46.4592ZM2.26871 54.2357L2.75727 54.3421C2.47138 55.6555 2.23514 56.9759 2.04717 58.3008L1.55212 58.2306L1.05708 58.1604C1.24845 56.8115 1.48899 55.4671 1.78015 54.1294L2.26871 54.2357ZM1.12689 62.2663L1.62569 62.301C1.53268 63.6399 1.48704 64.9811 1.48736 66.3221L0.987358 66.3223L0.487358 66.3224C0.487033 64.9585 0.53345 63.5941 0.62809 62.2317L1.12689 62.2663ZM1.1261 70.3789L1.62496 70.345C1.71587 71.6838 1.85135 73.02 2.03 74.3513L1.53444 74.4178L1.03888 74.4843C0.857369 73.1317 0.719666 71.7737 0.627253 70.4127L1.1261 70.3789ZM2.2028 78.4213L2.69312 78.3234C2.95598 79.6393 3.26041 80.948 3.60497 82.2468L3.12169 82.375L2.63841 82.5032C2.28859 81.1846 1.97946 79.8558 1.71249 78.5192L2.2028 78.4213ZM4.28184 86.2652L4.75643 86.1078C5.17907 87.3825 5.6403 88.6451 6.13871 89.8931L5.67437 90.0786L5.21002 90.264C4.70428 88.9976 4.2362 87.7163 3.80724 86.4225L4.28184 86.2652ZM7.29092 93.8025L7.7435 93.5899C8.31474 94.8063 8.92173 96.0056 9.56302 97.1856L9.12371 97.4244L8.6844 97.6631C8.03377 96.466 7.41794 95.2491 6.83835 94.015L7.29092 93.8025ZM11.1661 100.933L11.5907 100.669C12.3012 101.811 13.0449 102.931 13.8201 104.026L13.4119 104.315L13.0038 104.604C12.2171 103.492 11.4625 102.356 10.7416 101.197L11.1661 100.933ZM124.906 0.660792C126.291 1.16126 127.008 2.68983 126.508 4.07495C126.008 5.46007 124.479 6.17722 123.094 5.67675C121.709 5.17628 120.992 3.64771 121.492 2.26259C121.992 0.877473 123.521 0.160323 124.906 0.660792ZM17.1468 109.121L11.7362 107.106L16.1861 103.428L17.1468 109.121ZM124 3.16877L123.954 3.66667C123.261 3.60291 122.57 3.54174 121.884 3.48313L121.926 2.98494L121.969 2.48675C122.658 2.54555 123.35 2.60691 124.046 2.67087L124 3.16877ZM117.84 2.66335L117.804 3.16206C116.458 3.06518 115.125 2.9784 113.806 2.90155L113.835 2.40239L113.864 1.90324C115.188 1.98036 116.525 2.06744 117.876 2.16464L117.84 2.66335ZM109.769 2.19489L109.748 2.69441C108.373 2.63434 107.014 2.58534 105.67 2.5472L105.684 2.04741L105.699 1.54761C107.048 1.58589 108.412 1.63508 109.791 1.69536L109.769 2.19489ZM101.69 1.96526L101.683 2.46522C100.3 2.44775 98.9332 2.44212 97.5829 2.4481L97.5807 1.94811L97.5784 1.44811C98.9345 1.44211 100.307 1.44776 101.696 1.4653L101.69 1.96526ZM93.5239 2.00178L93.535 2.50166C92.1828 2.53168 90.8479 2.57369 89.53 2.62744L89.5096 2.12786L89.4892 1.62827C90.8134 1.57426 92.1545 1.53206 93.5128 1.50191L93.5239 2.00178ZM85.4034 2.33635L85.4338 2.83543C84.0872 2.91753 82.7592 3.0123 81.4497 3.11947L81.4089 2.62114L81.3681 2.1228C82.6846 2.01506 84.0195 1.91979 85.373 1.83728L85.4034 2.33635ZM77.3235 3.00149L77.3756 3.49878C76.0208 3.64051 74.6869 3.79599 73.3736 3.96488L73.3098 3.46896L73.246 2.97304C74.5673 2.80314 75.909 2.64675 77.2715 2.50421L77.3235 3.00149ZM69.288 4.03741L69.3643 4.53156C68.0095 4.74076 66.6778 4.96479 65.3691 5.20323L65.2795 4.71133L65.1899 4.21943C66.5076 3.97935 67.8481 3.75382 69.2117 3.54327L69.288 4.03741ZM61.3126 5.49242L61.4163 5.98155C60.0716 6.26664 58.7527 6.56761 57.4593 6.88395L57.3405 6.39827L57.2217 5.91258C58.5253 5.59375 59.8543 5.29049 61.2089 5.00329L61.3126 5.49242ZM53.429 7.42257L53.5637 7.90409C52.242 8.27382 50.9487 8.66039 49.6837 9.06317L49.532 8.58673L49.3803 8.1103C50.6568 7.70386 51.9614 7.31392 53.2943 6.94106L53.429 7.42257ZM45.6895 9.89008L45.8592 10.3604C44.5758 10.8234 43.3239 11.304 42.1028 11.8015L41.9142 11.3385L41.7255 10.8755C42.9593 10.3727 44.224 9.88728 45.5199 9.41975L45.6895 9.89008ZM38.1704 12.9598L38.3793 13.4141C37.1484 13.9801 35.9519 14.5643 34.7895 15.1659L34.5597 14.7219L34.3299 14.2778C35.5063 13.669 36.7167 13.0779 37.9615 12.5055L38.1704 12.9598ZM30.9742 16.6934L31.2263 17.1252C30.0465 17.8141 28.9057 18.5222 27.8034 19.2483L27.5283 18.8308L27.2533 18.4132C28.3709 17.677 29.527 16.9594 30.722 16.2617L30.9742 16.6934ZM24.2282 21.1413L24.5267 21.5424C23.4242 22.3628 22.3653 23.2029 21.3492 24.0613L21.0265 23.6793L20.7038 23.2973C21.7359 22.4255 22.8109 21.5727 23.9297 20.7401L24.2282 21.1413ZM18.0119 26.3965L18.3587 26.7568C17.3813 27.6974 16.4503 28.6568 15.5646 29.6332L15.1943 29.2973L14.8239 28.9614C15.7249 27.968 16.6717 26.9925 17.6652 26.0363L18.0119 26.3965ZM12.5761 32.3965L12.9694 32.7053C12.1295 33.7747 11.3392 34.8615 10.5975 35.9639L10.1826 35.6847L9.76779 35.4056C10.5233 34.2829 11.3279 33.1763 12.1829 32.0877L12.5761 32.3965ZM8.04467 39.1337L8.47925 39.381C7.81143 40.5547 7.19442 41.7432 6.62696 42.9443L6.17487 42.7307L5.72279 42.5171C6.30101 41.2932 6.9297 40.0822 7.61009 38.8864L8.04467 39.1337ZM4.58424 46.4592L5.05127 46.6377C4.57006 47.8965 4.13982 49.1665 3.75921 50.4455L3.27998 50.3029L2.80075 50.1603C3.18851 48.8573 3.62687 47.5633 4.1172 46.2807L4.58424 46.4592ZM2.26871 54.2357L2.75727 54.3421C2.47138 55.6555 2.23514 56.9759 2.04717 58.3008L1.55212 58.2306L1.05708 58.1604C1.24845 56.8115 1.48899 55.4671 1.78015 54.1294L2.26871 54.2357ZM1.12689 62.2663L1.62569 62.301C1.53268 63.6399 1.48704 64.9811 1.48736 66.3221L0.987358 66.3223L0.487358 66.3224C0.487033 64.9585 0.53345 63.5941 0.62809 62.2317L1.12689 62.2663ZM1.1261 70.3789L1.62496 70.345C1.71587 71.6838 1.85135 73.02 2.03 74.3513L1.53444 74.4178L1.03888 74.4843C0.857369 73.1317 0.719666 71.7737 0.627253 70.4127L1.1261 70.3789ZM2.2028 78.4213L2.69312 78.3234C2.95598 79.6393 3.26041 80.948 3.60497 82.2468L3.12169 82.375L2.63841 82.5032C2.28859 81.1846 1.97946 79.8558 1.71249 78.5192L2.2028 78.4213ZM4.28184 86.2652L4.75643 86.1078C5.17907 87.3825 5.6403 88.6451 6.13871 89.8931L5.67437 90.0786L5.21002 90.264C4.70428 88.9976 4.2362 87.7163 3.80724 86.4225L4.28184 86.2652ZM7.29092 93.8025L7.7435 93.5899C8.31474 94.8063 8.92173 96.0056 9.56302 97.1856L9.12371 97.4244L8.6844 97.6631C8.03377 96.466 7.41794 95.2491 6.83835 94.015L7.29092 93.8025ZM11.1661 100.933L11.5907 100.669C12.3012 101.811 13.0449 102.931 13.8201 104.026L13.4119 104.315L13.0038 104.604C12.2171 103.492 11.4625 102.356 10.7416 101.197L11.1661 100.933Z" fill="#F1C93B"/>
</svg>
