<svg width="28" height="41" viewBox="0 0 28 41" fill="none" xmlns="http://www.w3.org/2000/svg">
<path fill-rule="evenodd" clip-rule="evenodd" d="M27.9152 6.06894C28.2432 5.19073 27.4994 5.45708 27.4994 5.45708C27.4994 5.45708 22.5402 12.301 21.851 11.4623C21.1617 10.6237 26.7065 4.06428 26.0504 2.83854C25.4433 1.69599 20.5719 9.85284 19.9867 8.85655C19.4071 7.86227 24.1581 0.723175 24.1581 0.723175C24.1581 0.723175 24.3387 -0.351613 23.7326 0.119361C16.2628 5.8945 15.3113 11.2785 15.3113 11.2785C15.3113 11.2785 15.0542 12.3271 15.6123 13.1376C15.6669 13.208 1.98406 32.7682 0.15244 35.4089C-0.738872 36.689 2.53145 41.3135 3.41716 40.0335C5.24925 37.3928 18.828 17.6903 18.877 17.7635C19.4403 18.5719 20.1678 18.2009 20.1678 18.2009C20.1678 18.2009 23.9066 16.8289 27.9152 6.06894Z" fill="#F1C93B" fill-opacity="0.78"/>
<path fill-rule="evenodd" clip-rule="evenodd" d="M14 26.0241C17.6413 31.2706 23.7802 40.1124 23.7802 40.1124C23.7802 40.1124 26.4597 38.8518 26.8372 35.5979L17.0958 21.5653C16.1877 22.8709 15.1335 24.3885 14 26.0241Z" fill="#F1C93B" fill-opacity="0.78"/>
<path fill-rule="evenodd" clip-rule="evenodd" d="M9.2205 21.2877C10.6667 19.21 12.0158 17.267 13.1343 15.6522L2.54685 0.401833C2.54685 0.401833 2.35552 0.113344 1.93413 0.721854C1.09742 1.92076 -0.521407 9.55967 6.3417 19.4414C7.42947 21.0087 8.37585 21.226 9.2205 21.2877Z" fill="#F1C93B" fill-opacity="0.78"/>
</svg>
