<svg width="25" height="24" viewBox="0 0 25 24" fill="none" xmlns="http://www.w3.org/2000/svg">
<path d="M23.4375 8.8125C23.4375 15.375 13.3018 20.6869 12.8701 20.9062C12.7563 20.965 12.6292 20.9958 12.5 20.9958C12.3708 20.9958 12.2436 20.965 12.1299 20.9062C11.6982 20.6869 1.5625 15.375 1.5625 8.8125C1.56431 7.27146 2.20279 5.79404 3.33788 4.70436C4.47296 3.61468 6.01194 3.00174 7.61719 3C9.63379 3 11.3994 3.8325 12.5 5.23969C13.6006 3.8325 15.3662 3 17.3828 3C18.9881 3.00174 20.527 3.61468 21.6621 4.70436C22.7972 5.79404 23.4357 7.27146 23.4375 8.8125Z" fill="#F15C3B"/>
</svg>
