<svg width="28" height="28" viewBox="0 0 28 28" fill="none" xmlns="http://www.w3.org/2000/svg">
<g clip-path="url(#clip0_78_1258)">
<path d="M9.62501 4C7.07323 4.00301 4.62682 5.01804 2.82243 6.82242C1.01805 8.62681 0.00302065 11.0732 1.024e-05 13.625C-0.00304604 15.7103 0.678118 17.7391 1.93901 19.4C1.93901 19.4 2.20151 19.7456 2.24439 19.7955L9.62501 28.5L17.0091 19.7911C17.0476 19.7448 17.311 19.4 17.311 19.4L17.3119 19.3974C18.5721 17.7372 19.253 15.7094 19.25 13.625C19.247 11.0732 18.232 8.62681 16.4276 6.82242C14.6232 5.01804 12.1768 4.00301 9.62501 4ZM9.62501 17.125C8.93277 17.125 8.25609 16.9197 7.68051 16.5351C7.10494 16.1506 6.65634 15.6039 6.39143 14.9644C6.12652 14.3249 6.05721 13.6211 6.19226 12.9422C6.32731 12.2633 6.66065 11.6396 7.15014 11.1501C7.63962 10.6606 8.26326 10.3273 8.94219 10.1923C9.62113 10.0572 10.3249 10.1265 10.9644 10.3914C11.6039 10.6563 12.1506 11.1049 12.5352 11.6805C12.9197 12.2561 13.125 12.9328 13.125 13.625C13.1239 14.5529 12.7547 15.4425 12.0986 16.0986C11.4425 16.7547 10.5529 17.1238 9.62501 17.125Z" fill="#F1C93B"/>
</g>
<defs>
<clipPath id="clip0_78_1258">
<rect width="28" height="28" fill="white"/>
</clipPath>
</defs>
</svg>
