<svg width="103" height="25" viewBox="0 0 103 25" fill="none" xmlns="http://www.w3.org/2000/svg">
<path d="M6.744 6.2C9.544 6.2 11.4 6.6 12.312 7.4C13.144 8.12 13.56 9.232 13.56 10.736C13.56 13.072 12.344 14.664 9.912 15.512L13.368 20.72L15.432 20.936C15.432 21.624 15.248 22.312 14.88 23H11.4L6.696 15.824H5.928L5.856 20.72L7.608 20.912C7.608 21.568 7.424 22.264 7.056 23H1.128L0.912 21.68C1.872 21.296 2.544 21.064 2.928 20.984C2.896 19.016 2.856 16.64 2.808 13.856C2.76 11.072 2.728 9.208 2.712 8.264L0.72 7.664C0.736 7.296 0.808 6.808 0.936 6.2H6.744ZM8.64 8.768C8.144 8.656 7.48 8.6 6.648 8.6H5.976C5.944 10.808 5.928 12.464 5.928 13.568L7.104 13.544C8.048 13.528 8.792 13.336 9.336 12.968C9.896 12.584 10.176 11.848 10.176 10.76C10.176 9.672 9.664 9.008 8.64 8.768ZM27.966 10.712C28.27 10.712 28.462 10.72 28.542 10.736C28.542 11.552 28.406 12.256 28.134 12.848C28.038 16.368 27.958 18.968 27.894 20.648C28.614 20.712 29.246 20.832 29.79 21.008L29.742 22.688C28.766 22.992 27.926 23.144 27.222 23.144C26.518 23.144 26.038 23.128 25.782 23.096C25.59 22.712 25.43 22.328 25.302 21.944C23.974 22.84 23.014 23.288 22.422 23.288C19.558 23.288 18.126 21.84 18.126 18.944C18.126 18.16 18.19 16.232 18.318 13.16C17.47 13.16 16.694 13.048 15.99 12.824C15.99 12.424 16.046 11.848 16.158 11.096C17.102 10.84 18.718 10.712 21.006 10.712C21.31 10.712 21.502 10.72 21.582 10.736C21.582 11.52 21.446 12.248 21.174 12.92V17.768C21.174 18.792 21.278 19.544 21.486 20.024C21.71 20.488 22.174 20.72 22.878 20.72C23.598 20.72 24.334 20.472 25.086 19.976L24.942 13.16C24.238 13.128 23.574 13.016 22.95 12.824C22.95 12.424 23.006 11.848 23.118 11.096C24.062 10.84 25.678 10.712 27.966 10.712ZM39.5994 11.552L39.6234 12.296C39.6234 13.544 39.5274 14.36 39.3354 14.744C38.8074 14.936 38.0714 15.032 37.1274 15.032L36.3594 12.608C36.1514 12.528 35.8634 12.488 35.4954 12.488C35.1274 12.488 34.8234 12.6 34.5834 12.824C34.3594 13.048 34.2474 13.312 34.2474 13.616C34.2474 13.92 34.3674 14.2 34.6074 14.456C34.8474 14.696 35.0954 14.888 35.3514 15.032C35.6074 15.176 35.9754 15.368 36.4554 15.608C36.9514 15.832 37.3194 16.008 37.5594 16.136C37.8154 16.264 38.1354 16.456 38.5194 16.712C38.9194 16.968 39.2234 17.208 39.4314 17.432C39.9434 18.04 40.1994 18.704 40.1994 19.424C40.1994 20.656 39.7274 21.608 38.7834 22.28C37.8554 22.952 36.7114 23.288 35.3514 23.288C34.6314 23.288 33.8394 23.16 32.9754 22.904C32.1274 22.648 31.4074 22.304 30.8154 21.872C30.8154 20.72 30.9274 19.648 31.1514 18.656C31.7914 18.576 32.3114 18.536 32.7114 18.536C33.1114 18.536 33.3834 18.544 33.5274 18.56L33.8154 20.888C34.2154 21.032 34.6954 21.104 35.2554 21.104C35.8154 21.104 36.2554 20.992 36.5754 20.768C36.9114 20.544 37.0794 20.232 37.0794 19.832C37.0794 19.416 36.8954 19.072 36.5274 18.8C36.1594 18.528 35.6554 18.248 35.0154 17.96C34.3754 17.656 33.8794 17.408 33.5274 17.216C33.1754 17.008 32.7994 16.744 32.3994 16.424C31.5834 15.8 31.1754 15.032 31.1754 14.12C31.1754 12.984 31.5674 12.104 32.3514 11.48C33.1514 10.84 34.2234 10.52 35.5674 10.52C36.9114 10.52 38.2554 10.864 39.5994 11.552ZM46.371 5.168L46.947 5.192C46.947 6.024 46.843 6.752 46.635 7.376C46.603 9.2 46.587 10.568 46.587 11.48C47.099 11.256 47.683 11.04 48.339 10.832C48.995 10.624 49.403 10.52 49.563 10.52C51.195 10.52 52.363 10.888 53.067 11.624C53.787 12.36 54.147 13.52 54.147 15.104C54.147 15.264 54.067 17.128 53.907 20.696L55.779 20.936C55.779 21.624 55.595 22.312 55.227 23H49.251L49.035 21.68C50.107 21.248 50.795 21.016 51.099 20.984C51.067 19.256 51.027 17.728 50.979 16.4C50.931 15.056 50.803 14.168 50.595 13.736C50.387 13.304 50.051 13.088 49.587 13.088C49.139 13.088 48.619 13.144 48.027 13.256C47.451 13.352 47.003 13.472 46.683 13.616L46.419 20.696L48.291 20.912C48.291 21.568 48.107 22.264 47.739 23H41.763L41.547 21.68C42.539 21.312 43.259 21.072 43.707 20.96L43.251 7.64C42.499 7.56 41.867 7.44 41.355 7.28C41.355 6.88 41.411 6.304 41.523 5.552C42.467 5.296 44.083 5.168 46.371 5.168Z" fill="#1A5D1A"/>
<path d="M77.3672 16.9062C77.3047 17.2812 77.1484 17.6094 76.8984 17.8906C76.6484 18.1719 76.3594 18.3984 76.0312 18.5703H76.0078C75.6328 18.7891 75.25 19.0078 74.8594 19.2266C74.4844 19.4453 74.0938 19.6406 73.6875 19.8125C73.2344 20 72.8125 20.2031 72.4219 20.4219C72.0312 20.6406 71.6328 20.8828 71.2266 21.1484L71.1562 21.1953L71.3906 21.3828C71.2969 21.5078 71.1484 21.6094 70.9453 21.6875C70.7422 21.75 70.5391 21.8281 70.3359 21.9219C70.1484 22 69.9922 22.1094 69.8672 22.25C69.7578 22.3906 69.7422 22.5859 69.8203 22.8359C68.9766 23.4453 68.0469 23.8203 67.0312 23.9609C66.0312 24.1016 65.0234 24.1016 64.0078 23.9609C63.5703 23.8984 63.0938 23.8047 62.5781 23.6797C62.0781 23.5547 61.5703 23.4062 61.0547 23.2344C60.5391 23.0781 60.0391 22.8984 59.5547 22.6953C59.0703 22.4922 58.6328 22.2812 58.2422 22.0625C58.1641 22.0156 58.0859 21.9609 58.0078 21.8984C57.9297 21.8203 57.8516 21.7578 57.7734 21.7109L56.4375 20.75L56.3906 20.7734C56.1094 20.9141 55.8906 21.1016 55.7344 21.3359C55.5781 21.5547 55.4531 21.7891 55.3594 22.0391C55.25 22.2891 55.1484 22.5391 55.0547 22.7891C54.9609 23.0391 54.8516 23.25 54.7266 23.4219C54.5859 23.5938 54.4062 23.7109 54.1875 23.7734C53.9688 23.8516 53.6797 23.8359 53.3203 23.7266C53.2734 23.3828 53.2734 23.0391 53.3203 22.6953C53.3672 22.3359 53.4141 21.9844 53.4609 21.6406C53.5078 21.2969 53.5469 20.9688 53.5781 20.6562C53.6094 20.3438 53.5938 20.0547 53.5312 19.7891C53.8281 19.6641 54.0078 19.5 54.0703 19.2969C54.1172 19.0781 54.1484 18.8594 54.1641 18.6406C54.1641 18.4219 54.2031 18.2188 54.2812 18.0312C54.3594 17.8438 54.5703 17.7031 54.9141 17.6094C54.9141 17.2656 54.9688 16.9531 55.0781 16.6719C55.1875 16.3906 55.3047 16.1172 55.4297 15.8516C55.5547 15.5703 55.6641 15.2891 55.7578 15.0078C55.8672 14.7266 55.9141 14.4062 55.8984 14.0469C56.3984 13.3281 56.8438 12.5781 57.2344 11.7969C57.625 11 58 10.2031 58.3594 9.40625C58.7344 8.5625 59.125 7.72656 59.5312 6.89844C59.9375 6.05469 60.3984 5.27344 60.9141 4.55469C61.4453 3.82031 62.0469 3.16406 62.7188 2.58594C63.4062 1.99219 64.2109 1.51562 65.1328 1.15625C65.2266 1.125 65.3516 1.08594 65.5078 1.03906C65.6797 0.976562 65.8594 0.921875 66.0469 0.875C66.2344 0.828125 66.4062 0.789062 66.5625 0.757812C66.7344 0.710938 66.8594 0.6875 66.9375 0.6875C67.0156 0.6875 67.1094 0.703125 67.2188 0.734375C67.3438 0.75 67.4453 0.765625 67.5234 0.78125C67.7734 0.828125 68.0234 0.875 68.2734 0.921875C68.5234 0.953125 68.7578 1.01562 68.9766 1.10938C69.2109 1.1875 69.4141 1.30469 69.5859 1.46094C69.7734 1.61719 69.9219 1.82812 70.0312 2.09375V2.11719C70.0625 2.24219 70.1016 2.38281 70.1484 2.53906C70.2109 2.67969 70.2656 2.8125 70.3125 2.9375C70.4219 3.29688 70.5312 3.71875 70.6406 4.20312C70.7656 4.6875 70.8281 5.125 70.8281 5.51562C70.8281 6.53125 70.6719 7.52344 70.3594 8.49219C70.0469 9.46094 69.6641 10.3906 69.2109 11.2812L69.2344 11.3047C70.0312 12.4766 70.6875 13.7188 71.2031 15.0312C71.7344 16.3281 72 17.6875 72 19.1094C72.4531 19.0312 72.8828 18.8906 73.2891 18.6875C73.6953 18.4844 74.1016 18.2734 74.5078 18.0547C74.9609 17.8203 75.4219 17.6016 75.8906 17.3984C76.375 17.1797 76.8672 17.0156 77.3672 16.9062ZM66.4219 12.3359C66.375 12.2109 66.2969 12.1406 66.1875 12.125C66.0938 12.0938 65.9844 12.0859 65.8594 12.1016C65.7969 12.1172 65.7422 12.125 65.6953 12.125C65.6641 12.1094 65.6172 12.1016 65.5547 12.1016C65.2891 12.0859 65.0625 12.1328 64.875 12.2422C64.6875 12.3359 64.5234 12.4688 64.3828 12.6406C64.2422 12.8125 64.1172 13.0078 64.0078 13.2266C63.8984 13.4297 63.7891 13.625 63.6797 13.8125L63.7734 13.9297C64.0859 13.8672 64.3828 13.7734 64.6641 13.6484C64.9453 13.5234 65.2266 13.3828 65.5078 13.2266C65.6484 13.1484 65.7969 13.0781 65.9531 13.0156C66.1094 12.9531 66.2656 12.8828 66.4219 12.8047V12.3359ZM70.6641 19.0156C70.5547 18.5 70.4453 17.9609 70.3359 17.3984C70.2266 16.8203 70.0859 16.2578 69.9141 15.7109C69.7578 15.1641 69.5469 14.6406 69.2812 14.1406C69.0312 13.6406 68.7109 13.1953 68.3203 12.8047C68.2109 13.0391 68.0469 13.2656 67.8281 13.4844C67.6094 13.7031 67.3594 13.9141 67.0781 14.1172C66.8125 14.3047 66.5391 14.4844 66.2578 14.6562C65.9922 14.8125 65.75 14.9453 65.5312 15.0547C65.2812 15.0391 65 15.0781 64.6875 15.1719C64.375 15.25 64.0625 15.3203 63.75 15.3828C63.4375 15.4297 63.1406 15.4375 62.8594 15.4062C62.5938 15.3594 62.3828 15.1953 62.2266 14.9141V14.8906C62.1328 14.8281 62.0312 14.7812 61.9219 14.75C61.8281 14.7188 61.75 14.6484 61.6875 14.5391C61.6406 14.4297 61.6484 14.3047 61.7109 14.1641C61.7891 14.0234 61.8672 13.8672 61.9453 13.6953C62.0391 13.5234 62.1094 13.3438 62.1562 13.1562C62.2031 12.9688 62.1719 12.7734 62.0625 12.5703C62.1562 12.1172 62.3438 11.8047 62.625 11.6328C62.9062 11.4453 63.2266 11.3203 63.5859 11.2578C63.9609 11.1797 64.3359 11.125 64.7109 11.0938C65.1016 11.0625 65.4453 10.9688 65.7422 10.8125C66.0391 10.9375 66.3828 11.0078 66.7734 11.0234C67.1641 11.0234 67.5078 10.9453 67.8047 10.7891L68.25 9.80469C68.4844 9.32031 68.6875 8.875 68.8594 8.46875C69.0469 8.04688 69.1875 7.63281 69.2812 7.22656C69.3906 6.82031 69.4531 6.39844 69.4688 5.96094C69.5 5.50781 69.4766 5 69.3984 4.4375V4.39062H69.375C69.1562 4.28125 69.0391 4.13281 69.0234 3.94531C69.0078 3.75781 69 3.55469 69 3.33594C68.875 3.13281 68.7188 2.91406 68.5312 2.67969C68.3438 2.44531 68.1406 2.28125 67.9219 2.1875C67.7344 2.10938 67.5156 2.05469 67.2656 2.02344C67.0156 1.99219 66.7578 1.98438 66.4922 2C66.2422 2 65.9922 2.03125 65.7422 2.09375C65.5078 2.15625 65.2969 2.24219 65.1094 2.35156L65.0625 2.39844C64.9375 2.60156 64.8047 2.75781 64.6641 2.86719C64.5234 2.96094 64.3516 3.0625 64.1484 3.17188C64.0078 3.25 63.8516 3.33594 63.6797 3.42969C63.5234 3.50781 63.375 3.60156 63.2344 3.71094C63.1094 3.80469 63 3.92188 62.9062 4.0625C62.8125 4.20312 62.7656 4.375 62.7656 4.57812V5.44531C62.7656 5.46094 62.7422 5.51562 62.6953 5.60938C62.6641 5.70312 62.6172 5.80469 62.5547 5.91406C62.5078 6.02344 62.4609 6.13281 62.4141 6.24219C62.3672 6.33594 62.3359 6.39844 62.3203 6.42969C62.1016 6.89844 61.875 7.35938 61.6406 7.8125C61.4062 8.26562 61.125 8.69531 60.7969 9.10156V9.125C60.6094 9.64062 60.4141 10.1562 60.2109 10.6719C60.0234 11.1875 59.8438 11.7109 59.6719 12.2422C59.2812 13.3984 58.875 14.5469 58.4531 15.6875C58.0312 16.8281 57.4766 17.9141 56.7891 18.9453C57.2891 19.2734 57.7969 19.6172 58.3125 19.9766C58.8281 20.3203 59.3672 20.5938 59.9297 20.7969C60.1797 20.875 60.4297 20.9531 60.6797 21.0312C60.9297 21.1094 61.1641 21.2109 61.3828 21.3359L61.4062 21.3594C61.6562 21.3594 61.9219 21.3984 62.2031 21.4766C62.4844 21.5391 62.7656 21.6016 63.0469 21.6641C63.3281 21.7109 63.6016 21.7422 63.8672 21.7578C64.1484 21.7578 64.3984 21.6875 64.6172 21.5469C64.7422 21.5938 64.8516 21.5938 64.9453 21.5469C65.0547 21.5 65.1562 21.4609 65.25 21.4297C65.3438 21.3828 65.4297 21.3672 65.5078 21.3828C65.6016 21.3828 65.6875 21.4531 65.7656 21.5938C66.0469 21.3906 66.3359 21.2578 66.6328 21.1953C66.9453 21.1328 67.2656 21.0703 67.5938 21.0078C67.7656 20.9766 67.9297 20.9453 68.0859 20.9141C68.2578 20.8672 68.4297 20.8281 68.6016 20.7969H68.625L68.6484 20.7734C68.7734 20.6016 68.9062 20.4844 69.0469 20.4219C69.1875 20.3594 69.3438 20.2891 69.5156 20.2109C69.6406 20.1641 69.7656 20.1094 69.8906 20.0469C70.0312 19.9844 70.1484 19.9141 70.2422 19.8359C70.3359 19.7422 70.3828 19.6406 70.3828 19.5312C70.3984 19.4062 70.3516 19.2578 70.2422 19.0859L70.3125 19.0625C70.3906 18.9844 70.4453 18.9531 70.4766 18.9688C70.5234 18.9688 70.5859 18.9844 70.6641 19.0156ZM80.4548 10.712C80.7588 10.712 80.9508 10.72 81.0308 10.736C81.0308 11.52 80.8948 12.248 80.6228 12.92C80.5588 16.376 80.5188 18.968 80.5028 20.696L82.3748 20.912C82.3748 21.568 82.1908 22.264 81.8228 23H75.8468L75.6308 21.68C76.6228 21.312 77.3428 21.072 77.7908 20.96L77.5268 13.184C76.5828 13.088 75.8868 12.968 75.4388 12.824C75.4388 12.424 75.4948 11.848 75.6068 11.096C76.5508 10.84 78.1668 10.712 80.4548 10.712ZM80.4548 6.176C80.5988 6.896 80.6708 7.448 80.6708 7.832C80.6708 8.2 80.6388 8.616 80.5748 9.08C79.9348 9.224 79.3908 9.296 78.9428 9.296C78.5108 9.296 77.9828 9.272 77.3588 9.224C77.2148 8.504 77.1428 7.96 77.1428 7.592C77.1428 7.208 77.1748 6.784 77.2388 6.32C77.8788 6.176 78.4148 6.104 78.8468 6.104C79.2948 6.104 79.8308 6.128 80.4548 6.176ZM85.7496 23.288L85.2216 23.264C85.1256 23.088 84.9976 22.76 84.8376 22.28C84.6776 21.8 84.5896 21.44 84.5736 21.2C84.4936 19.616 84.4056 16.872 84.3096 12.968H82.6296L82.7016 11.6C83.0696 11.344 83.5096 11.112 84.0216 10.904L85.9656 7.832C86.5896 7.896 87.0776 8.064 87.4296 8.336L87.4056 10.616C88.4136 10.648 89.3496 10.744 90.2136 10.904C90.2136 11.544 90.0136 12.232 89.6136 12.968H87.3816C87.3176 16.328 87.2776 18.848 87.2616 20.528C87.9016 20.592 88.7736 20.776 89.8776 21.08L89.8536 22.328C89.5816 22.504 88.9736 22.712 88.0296 22.952C87.1016 23.176 86.3416 23.288 85.7496 23.288ZM97.5733 20.936C98.1173 20.936 99.2213 20.56 100.885 19.808C101.237 20.32 101.501 20.912 101.677 21.584C100.797 22.128 99.9333 22.552 99.0853 22.856C98.2533 23.144 97.6613 23.288 97.3093 23.288C95.3733 23.288 93.9013 22.752 92.8933 21.68C91.9013 20.608 91.4053 19.088 91.4053 17.12C91.4053 15.136 91.9013 13.544 92.8933 12.344C93.8853 11.128 95.3573 10.52 97.3093 10.52C98.8613 10.52 100.045 11.024 100.861 12.032C101.677 13.04 102.085 14.352 102.085 15.968C102.085 16.304 101.893 16.688 101.509 17.12L94.5973 17C94.6293 18.28 94.8693 19.256 95.3173 19.928C95.7653 20.6 96.5173 20.936 97.5733 20.936ZM97.0933 12.512C96.4853 12.512 95.9173 12.632 95.3893 12.872C95.0213 13.64 94.7893 14.352 94.6933 15.008C95.9413 14.96 97.3573 14.928 98.9413 14.912C98.8613 13.312 98.2453 12.512 97.0933 12.512Z" fill="#F1C93B"/>
</svg>
