<svg width="20" height="22" viewBox="0 0 20 22" fill="none" xmlns="http://www.w3.org/2000/svg">
<path d="M16 17.6C16.5304 17.6 17.0391 17.8318 17.4142 18.2444C17.7893 18.6569 18 19.2165 18 19.8C18 20.3835 17.7893 20.9431 17.4142 21.3556C17.0391 21.7682 16.5304 22 16 22C15.4696 22 14.9609 21.7682 14.5858 21.3556C14.2107 20.9431 14 20.3835 14 19.8C14 18.579 14.89 17.6 16 17.6ZM0 0H3.27L4.21 2.2H19C19.2652 2.2 19.5196 2.31589 19.7071 2.52218C19.8946 2.72847 20 3.00826 20 3.3C20 3.487 19.95 3.674 19.88 3.85L16.3 10.967C15.96 11.638 15.3 12.1 14.55 12.1H7.1L6.2 13.893L6.17 14.025C6.17 14.0979 6.19634 14.1679 6.24322 14.2195C6.29011 14.271 6.3537 14.3 6.42 14.3H18V16.5H6C5.46957 16.5 4.96086 16.2682 4.58579 15.8556C4.21071 15.4431 4 14.8835 4 14.3C4 13.915 4.09 13.552 4.24 13.244L5.6 10.549L2 2.2H0V0ZM6 17.6C6.53043 17.6 7.03914 17.8318 7.41421 18.2444C7.78929 18.6569 8 19.2165 8 19.8C8 20.3835 7.78929 20.9431 7.41421 21.3556C7.03914 21.7682 6.53043 22 6 22C5.46957 22 4.96086 21.7682 4.58579 21.3556C4.21071 20.9431 4 20.3835 4 19.8C4 18.579 4.89 17.6 6 17.6ZM15 9.9L17.78 4.4H5.14L7.5 9.9H15Z" fill="#1A5D1A"/>
</svg>
